<svg viewBox="0 0 1024 1024" xmlns="http://www.w3.org/2000/svg"><path d="m788 705.9v-513.9c0-8.8-7.2-16-16-16h-170v-68.8c0-6-7-9.4-11.7-5.7l-127.6 100.8a7.14 7.14 0 0 0 0 11.3l127.5 100.8c4.7 3.7 11.7.4 11.7-5.7v-68.7h114v465.9c-44.2 15-76 56.9-76 106.1 0 61.8 50.2 112 112 112s112-50.2 112-112c.1-49.2-31.7-91-75.9-106.1zm-36 154.1a48.01 48.01 0 0 1 0-96 48.01 48.01 0 0 1 0 96zm-368-648c0-61.8-50.2-112-112-112s-112 50.2-112 112c0 49.2 31.8 91 76 106.1v387.9c-44.2 15-76 56.9-76 106.1 0 61.8 50.2 112 112 112s112-50.2 112-112c0-49.2-31.8-91-76-106.1v-387.9c44.2-15.1 76-56.9 76-106.1zm-160 0a48.01 48.01 0 0 1 96 0 48.01 48.01 0 0 1 -96 0zm96 600a48.01 48.01 0 0 1 -96 0 48.01 48.01 0 0 1 96 0z"/></svg>