<svg width="64" height="64" viewBox="0 0 64 64" fill="none" xmlns="http://www.w3.org/2000/svg">
    <g clip-path="url(#clip0_339_182001)">
        <path fill-rule="evenodd" clip-rule="evenodd" d="M32 10.6667C20.2179 10.6667 10.6667 20.2179 10.6667 32C10.6667 43.7821 20.2179 53.3333 32 53.3333C43.7821 53.3333 53.3333 43.7821 53.3333 32C53.3333 20.2179 43.7821 10.6667 32 10.6667ZM0 32C0 14.3269 14.3269 0 32 0C49.6731 0 64 14.3269 64 32C64 49.6731 49.6731 64 32 64C14.3269 64 0 49.6731 0 32Z" fill="#FF5555" fill-opacity="0.3"/>
        <path fill-rule="evenodd" clip-rule="evenodd" d="M46.9261 16.858C38.6231 8.55492 25.1611 8.55492 16.858 16.858C8.55492 25.1611 8.55492 38.6231 16.858 46.9261C18.9338 49.0019 18.9338 52.3674 16.858 54.4432C14.7822 56.5189 11.4167 56.5189 9.34097 54.4432C-3.11366 41.9885 -3.11366 21.7956 9.34097 9.34097C21.7956 -3.11366 41.9885 -3.11366 54.4432 9.34097C56.5189 11.4167 56.5189 14.7822 54.4432 16.858C52.3674 18.9338 49.0019 18.9338 46.9261 16.858Z" fill="url(#paint0_linear_339_182001)"/>
    </g>
    <defs>
        <linearGradient id="paint0_linear_339_182001" x1="41.2884" y1="3.70332" x2="5.31534" y2="37.2074" gradientUnits="userSpaceOnUse">
            <stop stop-color="#FF5555"/>
            <stop offset="1" stop-color="#FF5555" stop-opacity="0"/>
        </linearGradient>
        <clipPath id="clip0_339_182001">
            <rect width="64" height="64" fill="white"/>
        </clipPath>
    </defs>
</svg>
